<?xml version="1.0" encoding="UTF-8"?>
<svg width="82px" height="82px" viewBox="0 0 82 82" version="1.1" xmlns="http://www.w3.org/2000/svg" xmlns:xlink="http://www.w3.org/1999/xlink">
    <!-- Generator: Sketch 51.1 (57501) - http://www.bohemiancoding.com/sketch -->
    <title>Bandaid Icon</title>
    <desc>Created with Sketch.</desc>
    <defs></defs>
    <g id="Welcome" stroke="none" stroke-width="1" fill="none" fill-rule="evenodd">
        <g id="Desktop" transform="translate(-444.000000, -1835.000000)">
            <g id="Our-Services-Section" transform="translate(0.000000, 1468.000000)">
                <g id="One-Service-Copy" transform="translate(350.000000, 367.000000)">
                    <g id="Bandaid-Icon" transform="translate(94.000000, 0.000000)">
                        <circle id="Oval" fill="#DAFFF0" cx="41" cy="41" r="41"></circle>
                        <path d="M59.4805,22.462 C56.3256667,19.3090833 53.16125,18 50.5354167,18 C48.6724167,18 47.0835,18.6574167 45.9584167,19.7825 L19.7825,45.9584167 C18.6574167,47.0815833 18,48.6724167 18,50.5354167 C18,53.16125 19.3090833,56.3256667 22.462,59.4805 C25.6609167,62.6775 28.8483333,64 31.48375,64 C33.3429167,64 34.9260833,63.3425833 36.0473333,62.2213333 L62.2213333,36.0473333 C63.3425833,34.9260833 64,33.3429167 64,31.48375 C64,28.8483333 62.6775,25.6609167 59.4805,22.462 Z M56.7703333,25.1721667 C60.3123333,28.7141667 60.826,32.0223333 59.5130833,33.3371667 L54.0908333,38.7575 L43.2501667,27.9168333 L48.6705,22.4945833 C49.9834167,21.17975 53.2685833,21.6723333 56.7703333,25.1721667 Z M51.37875,41.4676667 L41.4676667,51.37875 L30.627,40.5380833 L40.5380833,30.627 L51.37875,41.4676667 Z M25.1721667,56.7703333 C21.6723333,53.2705 21.17975,49.9834167 22.4945833,48.6685833 L27.9168333,43.24825 L38.7575,54.0889167 L33.3371667,59.5111667 C32.0223333,60.826 28.7141667,60.3104167 25.1721667,56.7703333 Z M28.93075,49.0078333 C28.3691667,49.5694167 27.45875,49.5694167 26.8971667,49.0078333 C26.3355833,48.44625 26.3355833,47.5358333 26.8971667,46.97425 C27.45875,46.4145833 28.3691667,46.4126667 28.93075,46.97425 C29.4923333,47.5358333 29.4923333,48.4481667 28.93075,49.0078333 Z M35.0315,53.075 C34.4699167,52.5134167 33.5575833,52.5134167 32.9979167,53.075 C32.4363333,53.6365833 32.4363333,54.547 32.9979167,55.1085833 C33.5575833,55.66825 34.4699167,55.6701667 35.0315,55.1085833 C35.5911667,54.5450833 35.5911667,53.6346667 35.0315,53.075 Z M31.9820833,50.0236667 C31.4205,49.4620833 30.5081667,49.4620833 29.9485,50.0236667 C29.3869167,50.58525 29.3869167,51.4956667 29.9485,52.05725 C30.5100833,52.6188333 31.4205,52.6188333 31.9820833,52.05725 C32.54175,51.4956667 32.5436667,50.58525 31.9820833,50.0236667 Z M26.2205833,51.7199167 C25.659,52.2795833 24.7485833,52.2815 24.187,51.7199167 C23.6254167,51.1583333 23.6254167,50.246 24.187,49.6863333 C24.7485833,49.12475 25.659,49.12475 26.2205833,49.6863333 C26.7821667,50.2479167 26.7821667,51.1583333 26.2205833,51.7199167 Z M32.3194167,55.7851667 C31.7578333,55.2235833 30.8474167,55.2235833 30.2858333,55.7851667 C29.7261667,56.34675 29.72425,57.2571667 30.2858333,57.81875 C30.8474167,58.3803333 31.75975,58.3803333 32.3194167,57.81875 C32.881,57.25525 32.881,56.34675 32.3194167,55.7851667 Z M29.27,52.7338333 C28.7103333,52.1741667 27.798,52.17225 27.2364167,52.7338333 C26.67675,53.2954167 26.67675,54.20775 27.2364167,54.7674167 C27.798,55.329 28.7103333,55.329 29.27,54.7674167 C29.8315833,54.2058333 29.8315833,53.2954167 29.27,52.7338333 Z M51.7199167,26.2205833 C51.1583333,26.7821667 50.2479167,26.7821667 49.6863333,26.2205833 C49.12475,25.659 49.12475,24.7485833 49.6863333,24.187 C50.246,23.6254167 51.1583333,23.6254167 51.7199167,24.187 C52.2815,24.7485833 52.2795833,25.659 51.7199167,26.2205833 Z M57.8168333,30.2858333 C57.25525,29.72425 56.3448333,29.7261667 55.78325,30.2858333 C55.2216667,30.8474167 55.2216667,31.7578333 55.78325,32.3194167 C56.3448333,32.881 57.25525,32.881 57.8168333,32.3194167 C58.3784167,31.75975 58.3784167,30.8474167 57.8168333,30.2858333 Z M54.7674167,27.2364167 C54.20775,26.67675 53.2954167,26.67675 52.7338333,27.2364167 C52.17225,27.798 52.1741667,28.7103333 52.7338333,29.27 C53.2954167,29.8315833 54.2058333,29.8315833 54.7674167,29.27 C55.329,28.7103333 55.329,27.798 54.7674167,27.2364167 Z M49.0078333,28.93075 C48.4481667,29.4923333 47.5358333,29.4923333 46.97425,28.93075 C46.4126667,28.3691667 46.4145833,27.45875 46.97425,26.8971667 C47.5358333,26.3355833 48.4481667,26.3355833 49.00975,26.8971667 C49.5713333,27.45875 49.5694167,28.3691667 49.0078333,28.93075 Z M55.1066667,32.996 C54.5450833,32.4344167 53.6346667,32.4363333 53.0730833,32.9979167 C52.5115,33.5575833 52.5115,34.4699167 53.0730833,35.0315 C53.63275,35.5911667 54.5450833,35.5911667 55.1066667,35.0315 C55.66825,34.4699167 55.66825,33.5575833 55.1066667,32.996 Z M52.05725,29.9465833 C51.4975833,29.3869167 50.58525,29.3869167 50.0236667,29.9485 C49.4620833,30.5081667 49.4620833,31.4205 50.0236667,31.9820833 C50.58525,32.5436667 51.4956667,32.54175 52.05725,31.9820833 C52.6188333,31.4205 52.6188333,30.5081667 52.05725,29.9465833 Z" id="Shape" fill="#168156" fill-rule="nonzero"></path>
                    </g>
                </g>
            </g>
        </g>
    </g>
</svg>