<?xml version="1.0" encoding="UTF-8"?>
<svg width="82px" height="82px" viewBox="0 0 82 82" version="1.1" xmlns="http://www.w3.org/2000/svg" xmlns:xlink="http://www.w3.org/1999/xlink">
    <!-- Generator: Sketch 51.1 (57501) - http://www.bohemiancoding.com/sketch -->
    <title>Group 39</title>
    <desc>Created with Sketch.</desc>
    <defs></defs>
    <g id="Welcome" stroke="none" stroke-width="1" fill="none" fill-rule="evenodd">
        <g id="Desktop" transform="translate(-134.000000, -2221.000000)">
            <g id="Our-Services-Section" transform="translate(0.000000, 1468.000000)">
                <g id="Group-39" transform="translate(134.000000, 753.000000)">
                    <circle id="Oval-Copy-4" fill="#DAFFF0" cx="41" cy="41" r="41"></circle>
                    <g id="basketball" transform="translate(18.000000, 18.000000)" fill="#168156">
                        <path d="M28.8695471,41.241115 C29.6860131,35.8574226 29.9677513,30.5082288 29.7205116,25.2606141 C35.0639557,26.1959085 37.3734428,31.2250323 38.7840507,33.8545894 C36.4093996,37.3025291 32.9346277,39.9301696 28.8695471,41.241115 M12.5747261,39.0638723 C17.3086955,33.9197533 20.4672305,27.1292863 25.887338,25.4982709 C26.1403275,30.9279613 25.8106746,36.4803133 24.8657973,42.0729136 C20.3541519,42.4964793 16.1261614,41.375276 12.5747261,39.0638723 M3.99033374,25.3276947 C10.5009791,21.9583351 17.7878422,19.8999208 25.3219449,19.175451 C25.4350235,20.0053331 25.5423524,20.8371318 25.6266822,21.6746802 C17.9105037,23.6027666 14.8650473,31.0276238 9.5752677,36.6623891 C6.55664347,33.6974293 4.52697804,29.7435107 3.99033374,25.3276947 M8.79905004,10.1655764 C13.4084413,10.5699763 18.7653014,13.2646973 24.3464022,13.5694346 C24.4709804,14.1367443 24.5687263,14.7117203 24.6779718,15.2828632 C16.9253781,16.0456648 9.42769051,18.3091538 3.93283613,21.04029 C4.3583184,16.8717137 6.13691096,13.1113704 8.79905004,10.1655764 M25.5979334,4.03058206 C28.1239948,4.37556768 30.4909795,5.20544977 32.6049748,6.4358985 C30.8838798,7.97875089 29.8604225,9.00604141 27.3132786,9.56568476 C26.8130495,7.69126286 26.2495729,5.84367318 25.5979334,4.03058206 M21.4657723,3.91175368 C22.1902421,5.80150827 22.8092996,7.73726095 23.3612766,9.69792925 C19.9133369,9.27628015 16.5018124,7.84458981 12.5804758,6.9303779 C15.1774509,5.24186492 18.2056581,4.1704929 21.4657723,3.91175368 M40.7159702,15.696846 C35.7730928,14.968543 31.9782509,14.8861297 28.5437273,15.0222074 L28.2351569,13.3183617 C32.2197408,12.4501479 33.4061081,10.3342361 35.8823382,8.84504812 C37.9580017,10.7348027 39.6254323,13.0615391 40.7159702,15.696846 M29.176201,18.9243782 C33.3888588,18.7844673 37.6475147,19.0393734 41.871672,19.7695929 C42.4293988,23.0373734 42.2128245,26.3089871 40.9229615,29.7377609 C38.4064831,25.456106 34.4487313,21.6382651 29.4387734,21.3028624 C29.3601933,20.5074789 29.2796967,19.7140119 29.176201,18.9243782 M22.9990417,0 C10.3054873,0 0,10.3054873 0,22.9990417 C0,35.6925961 10.3054873,45.9980834 22.9990417,45.9980834 C35.6945127,45.9980834 46,35.6925961 46,22.9990417 C46,10.3054873 35.6945127,3.40454209e-15 22.9990417,3.40454209e-15" id="Shape"></path>
                    </g>
                </g>
            </g>
        </g>
    </g>
</svg>