<?xml version="1.0" encoding="UTF-8"?>
<svg width="82px" height="82px" viewBox="0 0 82 82" version="1.1" xmlns="http://www.w3.org/2000/svg" xmlns:xlink="http://www.w3.org/1999/xlink">
    <!-- Generator: Sketch 51.1 (57501) - http://www.bohemiancoding.com/sketch -->
    <title>Group 6</title>
    <desc>Created with Sketch.</desc>
    <defs></defs>
    <g id="Welcome" stroke="none" stroke-width="1" fill="none" fill-rule="evenodd">
        <g id="Desktop" transform="translate(-1064.000000, -2221.000000)">
            <g id="Our-Services-Section" transform="translate(0.000000, 1468.000000)">
                <g id="Group-41" transform="translate(1064.000000, 753.000000)">
                    <g id="Group-37">
                        <g id="Group-6">
                            <circle id="Oval-Copy-3" fill="#DAFFF0" cx="41" cy="41" r="41"></circle>
                            <g id="brain" transform="translate(19.000000, 17.000000)" fill="#0A8255" fill-rule="nonzero" stroke="#0A8255" stroke-width="0.5">
                                <path d="M41.9142651,17.1992032 C42.1335535,13.1994817 41.3127308,10.1656248 39.4618561,8.1837989 C38.0938183,6.72097491 36.5024684,6.22601939 35.5709955,6.05769444 C34.2592887,3.46869635 32.1167,2.88156288 30.7184849,2.95169828 C28.1856031,0.671295943 25.8337851,0.625206968 24.2706007,1.01596132 C23.3672933,1.24039459 22.6410262,1.63114895 22.1300238,1.97180659 C21.6190214,1.63114895 20.8927543,1.24039459 19.9854233,1.01596132 C18.4242507,0.625206968 16.0744446,0.671295943 13.5435746,2.95169828 C12.1332885,2.88156288 10.0027708,3.46869635 8.6910639,6.05769444 C7.75757926,6.22601939 6.16622936,6.72097491 4.80020335,8.1837989 C2.94932863,10.1656248 2.12448229,13.1974779 2.34980616,17.1992032 C0.736326247,19.8823831 -0.58141608,25.2808048 4.48233573,29.118213 C4.14434991,31.5048204 4.60103313,35.3522479 8.14586058,37.376155 C8.01106862,38.2959307 7.99698588,39.6745922 8.74135941,40.910979 C9.36502371,41.9449752 10.3709339,42.6282943 11.7329363,42.9609365 C12.5436999,44.1933156 14.8753996,47.2612383 17.8810592,47.2612383 C17.9011774,47.2612383 17.9233075,47.2612383 17.9434257,47.2612383 C19.5005746,47.2411996 20.9028134,46.411598 22.1340475,44.7984839 C23.3652815,46.4136019 24.7735557,47.2432035 26.3246692,47.2612383 C26.3467993,47.2612383 26.3669175,47.2612383 26.3870357,47.2612383 C29.3906834,47.2612383 31.7203714,44.1953195 32.5351586,42.9609365 C33.9031965,42.6282943 34.905083,41.9429713 35.5307591,40.910979 C36.271109,39.6785999 36.2550145,38.2959307 36.1222343,37.376155 C39.6670618,35.3522479 40.1217332,31.5088281 39.7837474,29.118213 C44.8434755,25.2808048 43.527745,19.8823831 41.9142651,17.1992032 Z M37.8363053,27.6273348 C37.4279057,27.9018648 37.2307473,28.4068397 37.3454211,28.8797526 C37.3957166,29.0841472 38.5082533,33.8693852 34.311596,35.6668552 C33.7543218,35.9013078 33.4666315,36.5365341 33.6597662,37.1076367 C33.6678135,37.1276753 34.1385795,38.6686502 33.516927,39.7066541 C33.180953,40.2617256 32.5552768,40.6103988 31.6117331,40.7667005 C31.2697236,40.8248127 30.9699624,41.033215 30.7969459,41.3257798 C30.2034589,42.3317218 28.264064,44.9227238 26.3910593,44.9227238 C26.3810002,44.9227238 26.3689293,44.9227238 26.3568584,44.9227238 C25.2684636,44.9066928 24.2001869,43.9568591 23.1822059,42.0972692 C22.9749884,41.7205419 22.5504943,41.490097 22.1239884,41.490097 C21.6934588,41.490097 21.2971302,41.7205419 21.0879009,42.0972692 C20.0739434,43.9568591 19.0056668,44.9066928 17.917272,44.9227238 C17.9052011,44.9227238 17.895142,44.9227238 17.8810592,44.9227238 C16.0080545,44.9227238 14.0706715,42.3317218 13.4791963,41.3257798 C13.3021561,41.0251995 13.0023949,40.820805 12.6563618,40.7626928 C11.7188535,40.6103988 11.097201,40.2617256 10.7592152,39.7106618 C10.2280946,38.8369752 10.4735367,37.5344606 10.6083287,37.1076367 C10.8014634,36.5325264 10.5218204,35.9013078 9.95851072,35.6628475 C5.75782983,33.8693852 6.8723783,29.0801395 6.92066199,28.8837604 C7.04137121,28.4068397 6.842201,27.9018648 6.43178965,27.6273348 C0.915378258,23.9662671 4.13831445,18.7341665 4.52659578,18.1510408 C4.66943502,17.934623 4.7358251,17.6741201 4.71973053,17.4176249 C4.47026481,13.9769827 5.0818582,11.3459034 6.4861088,9.81494785 C7.81793387,8.36414707 9.43141378,8.31405035 9.48774475,8.31204649 C9.96856982,8.31204649 10.4011112,8.02148556 10.5781514,7.57863062 C11.6283216,4.96358224 13.471149,5.27618573 13.662272,5.31826697 C14.0586006,5.42046426 14.4851065,5.30223602 14.7768204,5.01167509 C18.2552578,1.54097487 20.9893217,3.98769829 21.2850593,4.27024375 C21.5043477,4.48866541 21.8041089,4.61490913 22.1159411,4.61490913 L22.1461184,4.61490913 C22.4499032,4.61490913 22.7536881,4.48866541 22.9689529,4.27825922 C23.2687141,3.98369055 26.002778,1.54097487 29.4872508,5.01167509 C29.7668938,5.29021281 30.1933998,5.40643718 30.5836929,5.3222747 C30.7929222,5.27618573 32.6337378,4.96358224 33.6818962,7.57863062 C33.8609483,8.02148556 34.2914778,8.31204649 34.770291,8.31204649 C34.7904093,8.31204649 36.4079128,8.35212386 37.7417497,9.77687435 C39.172154,11.305826 39.7938065,13.9489285 39.5443407,17.415621 C39.5282462,17.6721162 39.5946362,17.9306152 39.7374755,18.1450292 C40.1177095,18.7361704 43.348693,23.968271 37.8363053,27.6273348 Z" id="Shape"></path>
                                <path d="M9.85993152,6.03565188 C9.24230267,5.8312573 8.57840196,6.15989173 8.37319628,6.77507936 C8.16799061,7.39026698 8.49792914,8.04953971 9.11354617,8.2539343 C12.6463027,9.42619736 12.7629883,12.189532 12.7670119,12.3338105 C12.7730474,12.9770523 13.2981325,13.4960543 13.941915,13.4960543 C14.591733,13.4960543 15.1168181,12.9710407 15.1168181,12.3257951 C15.1188299,12.1374314 15.0564635,7.76098265 9.85993152,6.03565188 Z" id="Shape"></path>
                                <path d="M13.6079528,25.2848126 C13.0003831,25.0603793 12.3244114,25.3709789 12.0990876,25.9761472 C12.0930521,25.9961859 11.2420521,28.1844103 9.63460764,28.6493078 C8.73934759,28.9078068 7.6831419,28.5791724 6.4861088,27.6714199 C5.96907097,27.2766579 5.23274472,27.3768513 4.84043975,27.8938493 C4.44612297,28.4068397 4.54671398,29.1382517 5.06173999,29.5330138 C6.41770691,30.5589944 7.73746105,31.0779964 9.00490787,31.0779964 C9.44147289,31.0779964 9.8679788,31.0178803 10.2884493,30.8936405 C13.0466549,30.0981047 14.255759,26.9199693 14.3020308,26.7837062 C14.5293665,26.1785379 14.2155226,25.507242 13.6079528,25.2848126 Z" id="Shape"></path>
                                <path d="M17.7462673,32.9496095 C17.2875722,32.4927275 16.5431987,32.4927275 16.0845037,32.9496095 C12.6825155,36.3361473 13.5113854,39.8389094 13.5475982,39.9831879 C13.6803784,40.5122092 14.1571798,40.8608823 14.6802531,40.8608823 C14.7727968,40.8608823 14.8633287,40.8528669 14.9558725,40.8288204 C15.5835604,40.6845419 15.9698299,40.0533233 15.8290025,39.4321241 C15.8068725,39.3299268 15.3220238,37.0214703 17.7482791,34.6068088 C18.2069741,34.1479229 18.2069741,33.4084954 17.7462673,32.9496095 Z" id="Shape"></path>
                                <path d="M19.6675557,16.4577719 C18.2069741,15.7323715 17.0843784,16.6040543 16.0965746,17.3775475 C15.307941,17.9927351 14.3301963,18.7542052 12.7650001,19.3774083 C9.92229795,20.509594 7.5342672,17.6400543 7.43166436,17.5098028 C7.02527665,17.0088357 6.28693858,16.9266771 5.78197168,17.3294547 C5.27499295,17.7342361 5.19452013,18.4696558 5.59889602,18.9746307 C5.71759342,19.122917 8.06538777,21.9924566 11.3949504,21.9924566 C12.1031112,21.9924566 12.855532,21.8642091 13.6341065,21.5516056 C15.5131467,20.8021588 16.6840261,19.8883947 17.5410616,19.2191027 C17.9031893,18.9345533 18.4021207,18.5518145 18.5550191,18.527768 C18.5550191,18.527768 18.5751373,18.5297719 18.6153737,18.5518145 C19.1927661,18.8403715 19.9009269,18.603915 20.190629,18.0288048 C20.4843548,17.4496868 20.24696,16.7483328 19.6675557,16.4577719 Z" id="Shape"></path>
                                <path d="M35.8546622,6.77507936 C35.6494565,6.15989173 34.9855558,5.82925343 34.3719506,6.03565188 C29.1734068,7.76098265 29.1130522,12.1374314 29.1130522,12.3257951 C29.1130522,12.9650291 29.6321019,13.4820272 30.2758844,13.4880388 C30.279908,13.4880388 30.2819199,13.4880388 30.2879553,13.4880388 C30.9236905,13.4880388 31.4467638,12.9730446 31.4588348,12.3378183 C31.466882,12.2155823 31.5614376,9.43421284 35.1102887,8.2539343 C35.7299294,8.05354745 36.0618797,7.39026698 35.8546622,6.77507936 Z" id="Shape"></path>
                                <path d="M39.3914424,27.8938493 C38.9971256,27.3768513 38.2607993,27.2786617 37.749797,27.6714199 C36.5507521,28.5791724 35.49857,28.9037991 34.6073336,28.6533155 C33.2674612,28.2705766 32.3661657,26.5873271 32.1327946,25.9761472 C31.9135062,25.3669712 31.2335109,25.0603793 30.627953,25.2848126 C30.0163596,25.5052381 29.7085511,26.1785379 29.9318631,26.7857101 C29.978135,26.9179654 31.1852272,30.0961008 33.9434329,30.8956443 C34.3639033,31.0178803 34.7944329,31.0800002 35.2289861,31.0800002 C36.4944211,31.0800002 37.8161871,30.5589944 39.1741658,29.5350176 C39.68718,29.1382517 39.7797237,28.4068397 39.3914424,27.8938493 Z" id="Shape"></path>
                                <path d="M27.0931846,29.6813 C26.6324777,29.224418 25.890116,29.224418 25.431421,29.6813 C24.972726,30.1401859 24.972726,30.8796134 25.431421,31.3364954 C27.8415818,33.7331221 27.3728276,36.0335631 27.346674,36.1517914 C27.1998111,36.7769983 27.5800451,37.4042092 28.2057213,37.5605109 C28.3043005,37.5845574 28.4008678,37.5985844 28.4954234,37.5985844 C29.0205085,37.5985844 29.4973099,37.239892 29.6280782,36.7148784 C29.664291,36.5665922 30.493161,33.0718455 27.0931846,29.6813 Z" id="Shape"></path>
                                <path d="M38.3392603,21.2349944 C38.1199719,20.6278222 37.4480239,20.3152187 36.8384424,20.5316365 C36.685544,20.5837371 33.1447402,21.8101046 31.3059364,19.3693928 C30.291979,18.0268009 29.8513903,16.8665611 29.5033454,15.9367661 C29.0547094,14.764503 28.5517544,13.4359382 26.9282153,13.3036829 C26.2783974,13.2435668 25.7130758,13.7305069 25.6607685,14.3757525 C25.610473,15.0189943 26.0892863,15.5840852 26.7330688,15.6361858 C26.7652579,15.6381897 26.7833643,15.6442013 26.7873879,15.6442013 C26.9201681,15.754414 27.1414683,16.3375398 27.3024139,16.7643638 C27.682648,17.7763174 28.2097449,19.1670021 29.4248844,20.7761085 C30.9015605,22.733888 32.9536173,23.220828 34.6395227,23.220828 C36.2590381,23.220828 37.5345322,22.7699576 37.6411587,22.7298803 C38.2447048,22.505447 38.5565369,21.8401626 38.3392603,21.2349944 Z" id="Shape"></path>
                                <path d="M22.1159411,2.2763946 C21.4661231,2.2763946 20.9390262,2.79940428 20.9390262,3.4466538 L20.9390262,42.6563485 C20.9390262,43.3056019 21.4661231,43.8306154 22.1159411,43.8306154 C22.7637472,43.8306154 23.2868205,43.3056019 23.2868205,42.6563485 L23.2868205,3.4466538 C23.2868205,2.79740041 22.7637472,2.2763946 22.1159411,2.2763946 Z" id="Shape"></path>
                                <path d="M16.0824918,28.3667623 C12.5557708,26.0262439 14.8914942,21.1969209 14.994097,20.9825069 C15.285811,20.4073967 15.050428,19.7080466 14.4690119,19.4154818 C13.8896077,19.1269247 13.1854706,19.3633812 12.8957684,19.9384914 C11.7067826,22.3090679 10.5701041,27.5211298 14.7808441,30.3165263 C14.9800143,30.4447739 15.2053382,30.5088977 15.4286502,30.5088977 C15.8068725,30.5088977 16.1830829,30.3285496 16.4104186,29.9878919 C16.7665108,29.4508552 16.6236715,28.7274586 16.0824918,28.3667623 Z" id="Shape"></path>
                            </g>
                        </g>
                    </g>
                </g>
            </g>
        </g>
    </g>
</svg>