<?xml version="1.0" encoding="UTF-8"?>
<svg width="82px" height="82px" viewBox="0 0 82 82" version="1.1" xmlns="http://www.w3.org/2000/svg" xmlns:xlink="http://www.w3.org/1999/xlink">
    <!-- Generator: Sketch 51.1 (57501) - http://www.bohemiancoding.com/sketch -->
    <title>Group 40</title>
    <desc>Created with Sketch.</desc>
    <defs></defs>
    <g id="Welcome" stroke="none" stroke-width="1" fill="none" fill-rule="evenodd">
        <g id="Desktop" transform="translate(-754.000000, -2221.000000)">
            <g id="Our-Services-Section" transform="translate(0.000000, 1468.000000)">
                <g id="Group-40" transform="translate(754.000000, 753.000000)">
                    <circle id="Oval" fill="#DAFFF0" cx="41" cy="41" r="41"></circle>
                    <path d="M29.9956142,43.4001669 C29.9956142,41.5081142 28.4600352,39.9725352 26.5679826,39.9725352 C24.6759299,39.9725352 23.1403509,41.5081142 23.1403509,43.4001669 C23.1403509,45.2922195 24.6759299,46.8277985 26.5679826,46.8277985 C28.4600352,46.8277985 29.9956142,45.2922195 29.9956142,43.4001669 Z M50.5614038,45.6852546 C50.5614038,45.0545704 50.0495441,44.5427107 49.4188599,44.5427107 L33.4232458,44.5427107 C32.7925615,44.5427107 32.2807019,45.0545704 32.2807019,45.6852546 C32.2807019,46.3159388 32.7925615,46.8277985 33.4232458,46.8277985 L49.4188599,46.8277985 C50.0495441,46.8277985 50.5614038,46.3159388 50.5614038,45.6852546 Z M59.7017547,43.4001669 C59.7017547,41.5081142 58.1661758,39.9725352 56.2741231,39.9725352 C54.3820705,39.9725352 52.8464915,41.5081142 52.8464915,43.4001669 C52.8464915,45.2922195 54.3820705,46.8277985 56.2741231,46.8277985 C58.1661758,46.8277985 59.7017547,45.2922195 59.7017547,43.4001669 Z M20.1743071,28.5470966 L15.1425439,28.5470966 C14.5118597,28.5470966 14,29.0589562 14,29.6896404 L14,30.8573203 C14,32.6693948 16.1159912,33.117272 17.6927018,33.117272 L20.1743071,28.5470966 Z M64.317632,35.7862545 C62.5786802,32.5574255 60.4352679,28.5425264 58.1844565,24.7904123 C56.3883775,21.7923772 55.0538863,20.3619123 51.8981801,19.7929254 C48.7104827,19.2216535 45.7718599,19 41.4210528,19 C37.0702458,19 34.131623,19.2216535 30.9439256,19.7929254 C27.7882194,20.3596272 26.4537282,21.7923772 24.6576492,24.7904123 C22.4159781,28.531101 20.2862764,32.5185791 18.5244737,35.7862545 C16.9546184,38.6951712 16.2850877,41.2978861 16.2850877,44.4832984 C16.2850877,47.4950441 17.2448246,50.0017853 18.5701755,53.2054783 L18.5701755,58.2532371 C18.5701755,59.5146056 19.5938948,60.5383249 20.8552632,60.5383249 L24.2828948,60.5383249 C25.5442632,60.5383249 26.5679826,59.5146056 26.5679826,58.2532371 L26.5679826,55.9681494 L56.2741231,55.9681494 L56.2741231,58.2532371 C56.2741231,59.5146056 57.2978424,60.5383249 58.5592109,60.5383249 L61.9868425,60.5383249 C63.2482109,60.5383249 64.2719302,59.5146056 64.2719302,58.2532371 L64.2719302,53.2054783 C65.5972811,49.9995002 66.5570179,47.4950441 66.5570179,44.4832984 C66.5570179,41.2978861 65.8874872,38.6951712 64.317632,35.7862545 Z M28.5765747,27.1394825 C30.1075835,24.5870395 30.5234694,24.5139167 31.7528466,24.2922632 C34.6503379,23.7735483 37.362737,23.5701755 41.4210528,23.5701755 C45.4793687,23.5701755 48.1917678,23.7712632 51.0892591,24.2922632 C52.3186363,24.5139167 52.7345222,24.5870395 54.265531,27.1394825 C55.1978468,28.6956273 56.1164521,30.3111843 56.9962109,31.8947501 C53.6691231,32.3974694 47.8101582,33.117272 41.4210528,33.117272 C34.4561054,33.117272 28.8142238,32.3494826 25.8710308,31.8490483 C26.7439343,30.2814782 27.6511141,28.6819167 28.5765747,27.1394825 Z M55.072167,51.3979739 L27.7699387,51.3979739 C23.9515571,51.3979739 20.8552632,48.3039651 20.8552632,44.4832984 C20.8552632,40.7334695 22.0115176,38.951101 23.5608071,36.0787457 C25.9395834,36.5471887 32.6257501,37.6874475 41.4210528,37.6874475 C49.3754433,37.6874475 56.4135135,36.6477326 59.3224302,36.1518686 C60.8397284,38.9648116 61.9868425,40.7448949 61.9868425,44.4832984 C61.9868425,48.3039651 58.8905486,51.3979739 55.072167,51.3979739 Z M67.6995618,28.5470966 C68.330246,28.5470966 68.8421057,29.0589562 68.8421057,29.6896404 L68.8421057,30.8573203 C68.8421057,32.6693948 66.7261144,33.117272 65.1494039,33.117272 L62.6677986,28.5470966 L67.6995618,28.5470966 Z" id="Shape" fill="#168156" fill-rule="nonzero"></path>
                </g>
            </g>
        </g>
    </g>
</svg>