<?xml version="1.0" encoding="UTF-8"?>
<svg width="82px" height="82px" viewBox="0 0 82 82" version="1.1" xmlns="http://www.w3.org/2000/svg" xmlns:xlink="http://www.w3.org/1999/xlink">
    <!-- Generator: Sketch 51.1 (57501) - http://www.bohemiancoding.com/sketch -->
    <title>Group 38</title>
    <desc>Created with Sketch.</desc>
    <defs></defs>
    <g id="Welcome" stroke="none" stroke-width="1" fill="none" fill-rule="evenodd">
        <g id="Desktop" transform="translate(-1064.000000, -1835.000000)">
            <g id="Our-Services-Section" transform="translate(0.000000, 1468.000000)">
                <g id="Group-38" transform="translate(1064.000000, 367.000000)">
                    <circle id="Oval" fill="#DAFFF0" cx="41" cy="41" r="41"></circle>
                    <path d="M31.5833333,48.6666667 L50.75,48.6666667 L50.75,50.5833333 L31.5833333,50.5833333 L31.5833333,48.6666667 Z M31.5833333,46.75 L50.75,46.75 L50.75,44.8333333 L31.5833333,44.8333333 L31.5833333,46.75 Z M60.3333333,21.8333333 L60.3333333,64 L22,64 L22,21.8333333 L27.75,21.8333333 C30.1055833,21.8333333 31.9283333,19.7556667 33.5,18 L48.8333333,18 C50.405,19.7556667 52.22775,21.8333333 54.5833333,21.8333333 L60.3333333,21.8333333 Z M39.25,23.75 C39.25,24.808 40.1086667,25.6666667 41.1666667,25.6666667 C42.2246667,25.6666667 43.0833333,24.808 43.0833333,23.75 C43.0833333,22.692 42.2246667,21.8333333 41.1666667,21.8333333 C40.1086667,21.8333333 39.25,22.692 39.25,23.75 Z M56.5,25.6666667 L48.8333333,25.6666667 L45,29.5 L37.5288333,29.5 L33.5,25.6666667 L25.8333333,25.6666667 L25.8333333,60.1666667 L56.5,60.1666667 L56.5,25.6666667 Z M31.5833333,42.9166667 L50.75,42.9166667 L50.75,41 L31.5833333,41 L31.5833333,42.9166667 Z M31.5833333,39.0833333 L50.75,39.0833333 L50.75,37.1666667 L31.5833333,37.1666667 L31.5833333,39.0833333 Z" id="Shape" fill="#168156" fill-rule="nonzero"></path>
                </g>
            </g>
        </g>
    </g>
</svg>