<?xml version="1.0" encoding="UTF-8"?>
<svg width="82px" height="82px" viewBox="0 0 82 82" version="1.1" xmlns="http://www.w3.org/2000/svg" xmlns:xlink="http://www.w3.org/1999/xlink">
    <!-- Generator: Sketch 51.1 (57501) - http://www.bohemiancoding.com/sketch -->
    <title>Group 34</title>
    <desc>Created with Sketch.</desc>
    <defs></defs>
    <g id="Welcome" stroke="none" stroke-width="1" fill="none" fill-rule="evenodd">
        <g id="Desktop" transform="translate(-754.000000, -1835.000000)">
            <g id="Our-Services-Section" transform="translate(0.000000, 1468.000000)">
                <g id="Group-34" transform="translate(754.000000, 367.000000)">
                    <circle id="Oval-Copy-7" fill="#DAFFF0" cx="41" cy="41" r="41"></circle>
                    <g id="community" transform="translate(14.000000, 27.000000)" fill="#168156" fill-rule="nonzero">
                        <path d="M41.123145,27.42 L13.71457,27.42 L13.71,25.996445 C13.71,23.11963 13.9385,21.458435 17.33858,20.672395 C21.18652,19.78353 24.97962,18.990635 23.153905,15.62483 C17.747595,5.655375 21.613815,0 27.417715,0 C33.10965,0 37.074125,5.445155 31.681525,15.627115 C29.91065,18.972355 33.568935,19.767535 37.49685,20.67468 C40.9015,21.46072 41.127715,23.1242 41.127715,26.005585 L41.123145,27.42 Z M52.11628,22.36101 C49.16863,21.68008 46.42663,21.083695 47.754215,18.574765 C51.79638,10.938295 48.82588,6.855 44.555215,6.855 C41.66469,6.855 39.418535,8.721845 39.418535,12.16534 C39.418535,21.083695 44.600915,16.20979 44.550645,27.42 L54.83543,27.42 L54.84,26.362045 C54.84,24.200435 54.67091,22.95054 52.11628,22.36101 Z M0.00457,27.42 L10.289355,27.42 C10.24137,16.20979 15.421465,21.08598 15.421465,12.16534 C15.421465,8.721845 13.17531,6.855 10.284785,6.855 C6.01412,6.855 3.04362,10.938295 7.08807,18.574765 C8.415655,21.08598 5.673655,21.68008 2.726005,22.36101 C0.16909,22.95054 0,24.200435 0,26.362045 L0.00457,27.42 Z" id="Shape"></path>
                    </g>
                </g>
            </g>
        </g>
    </g>
</svg>