<?xml version="1.0" encoding="UTF-8"?>
<svg width="82px" height="82px" viewBox="0 0 82 82" version="1.1" xmlns="http://www.w3.org/2000/svg" xmlns:xlink="http://www.w3.org/1999/xlink">
    <!-- Generator: Sketch 51.1 (57501) - http://www.bohemiancoding.com/sketch -->
    <title>Group 36</title>
    <desc>Created with Sketch.</desc>
    <defs></defs>
    <g id="Welcome" stroke="none" stroke-width="1" fill="none" fill-rule="evenodd">
        <g id="Desktop" transform="translate(-444.000000, -2221.000000)">
            <g id="Our-Services-Section" transform="translate(0.000000, 1468.000000)">
                <g id="Group-36" transform="translate(444.000000, 753.000000)">
                    <circle id="Oval-Copy-2" fill="#DAFFF0" cx="41" cy="41" r="41"></circle>
                    <g id="gym" transform="translate(18.000000, 18.000000)" fill="#168156">
                        <path d="M46,46 L0,46 L0,42.1666667 L3.83333333,42.1666667 L3.83333333,15.3333333 L0,15.3333333 L0,11.5 L46,11.5 L46,15.3333333 L42.1666667,15.3333333 L42.1666667,42.1666667 L46,42.1666667 L46,46 Z M21.0833333,36.4166667 L17.25,36.4166667 L17.25,44.0833333 L21.0833333,44.0833333 L21.0833333,36.4166667 Z M28.75,36.4166667 L24.9166667,36.4166667 L24.9166667,44.0833333 L28.75,44.0833333 L28.75,36.4166667 Z M38.3333333,15.3333333 L7.66666667,15.3333333 L7.66666667,42.1666667 L13.4166667,42.1666667 L13.4166667,32.5833333 L32.5833333,32.5833333 L32.5833333,42.1666667 L38.3333333,42.1666667 L38.3333333,15.3333333 Z M26.8333333,28.75 L19.1666667,28.75 L19.1666667,19.1666667 L26.8333333,19.1666667 L26.8333333,28.75 Z M17.25,28.75 L9.58333333,28.75 L9.58333333,19.1666667 L17.25,19.1666667 L17.25,28.75 Z M36.4166667,28.75 L28.75,28.75 L28.75,19.1666667 L36.4166667,19.1666667 L36.4166667,28.75 Z M17.25,5.75 L17.25,7.66666667 C17.25,8.72275 16.39325,9.58333333 15.3333333,9.58333333 C14.2753333,9.58333333 13.4166667,8.72466667 13.4166667,7.66666667 L13.4166667,1.91666667 C13.4166667,0.858666667 14.2753333,0 15.3333333,0 C16.39325,0 17.25,0.860583333 17.25,1.91666667 L17.25,3.83333333 L28.75,3.83333333 L28.75,1.91666667 C28.75,0.860583333 29.60675,0 30.6666667,0 C31.7265833,0 32.5833333,0.860583333 32.5833333,1.91666667 L32.5833333,7.66666667 C32.5833333,8.72275 31.7265833,9.58333333 30.6666667,9.58333333 C29.60675,9.58333333 28.75,8.72275 28.75,7.66666667 L28.75,5.75 L17.25,5.75 Z M35.4583333,5.75 L35.4583333,6.70833333 C35.4583333,7.23733333 35.029,7.66666667 34.5,7.66666667 C33.971,7.66666667 33.5416667,7.23733333 33.5416667,6.70833333 L33.5416667,2.875 C33.5416667,2.346 33.971,1.91666667 34.5,1.91666667 C35.029,1.91666667 35.4583333,2.346 35.4583333,2.875 L35.4583333,3.83333333 L36.4166667,3.83333333 L36.4166667,5.75 L35.4583333,5.75 Z M10.5416667,3.83333333 L10.5416667,2.875 C10.5416667,2.346 10.971,1.91666667 11.5,1.91666667 C12.029,1.91666667 12.4583333,2.346 12.4583333,2.875 L12.4583333,6.70833333 C12.4583333,7.23733333 12.029,7.66666667 11.5,7.66666667 C10.971,7.66666667 10.5416667,7.23733333 10.5416667,6.70833333 L10.5416667,5.75 L9.58333333,5.75 L9.58333333,3.83333333 L10.5416667,3.83333333 Z" id="Shape"></path>
                    </g>
                </g>
            </g>
        </g>
    </g>
</svg>