<?xml version="1.0" encoding="UTF-8"?>
<svg width="82px" height="82px" viewBox="0 0 82 82" version="1.1" xmlns="http://www.w3.org/2000/svg" xmlns:xlink="http://www.w3.org/1999/xlink">
    <!-- Generator: Sketch 51.1 (57501) - http://www.bohemiancoding.com/sketch -->
    <title>Group 35</title>
    <desc>Created with Sketch.</desc>
    <defs></defs>
    <g id="Welcome" stroke="none" stroke-width="1" fill="none" fill-rule="evenodd">
        <g id="Desktop" transform="translate(-134.000000, -1835.000000)">
            <g id="Our-Services-Section" transform="translate(0.000000, 1468.000000)">
                <g id="Group-35" transform="translate(134.000000, 367.000000)">
                    <circle id="Oval-Copy-6" fill="#DAFFF0" cx="41" cy="41" r="41"></circle>
                    <g id="skills" transform="translate(22.000000, 18.000000)" fill="#168156">
                        <path d="M28.7423333,46 L4.58275,46 C4.58275,46 5.98958333,38.4655833 5.796,35.1018333 C5.71741667,33.7141667 5.48741667,32.2766667 4.761,31.0691667 C3.52475,29.1525 -0.291333333,23.9391667 0.01725,16.8283333 C0.446583333,6.84441667 9.01216667,0.00191666667 19.4254167,0.00191666667 C29.1965833,0.00191666667 35.7305,5.75383333 38.3199167,14.3443333 C38.9485833,16.4124167 38.916,17.2979167 38.0305,19.3410833 L38.019,19.366 L41.3750833,23.4715 C41.8734167,24.20175 42.1666667,24.9875833 42.1666667,25.84625 C42.1666667,26.8946667 41.7200833,27.8491667 40.9975,28.5276667 C40.2921667,29.1889167 39.5274167,29.394 38.6055,29.7581667 C38.6055,29.7581667 37.5015,34.7261667 36.93225,36.0659167 C35.5905833,39.215 33.1564167,39.2456667 31.23975,39.6098333 C30.4845833,39.7689167 30.3005833,39.86475 29.9345,40.9150833 C29.5358333,42.0478333 29.23875,43.6655 28.7423333,46 Z M19.4618333,3.83333333 C11.2489167,3.92533333 4.62683333,8.717 3.89658333,16.2686667 C3.52858333,20.08475 4.784,23.9085 6.80225,27.20325 C7.97333333,29.1199167 9.3035,30.2545833 9.60825,34.6303333 C9.78266667,37.1469167 9.51241667,39.6826667 9.14633333,42.1666667 L25.6373333,42.1666667 C25.9075833,40.9304167 26.3081667,39.3204167 26.9540833,38.2240833 C27.8146667,36.7559167 29.0566667,36.1176667 30.6455833,35.8205833 C32.25175,35.5369167 33.0184167,35.7075 33.4995,34.316 C33.9058333,33.20625 34.6725,30.0590833 35.09225,26.8371667 C37.398,26.1950833 36.26525,26.5285833 38.295,25.76575 C37.9001667,25.31725 34.6188333,21.3305833 34.3754167,20.7824167 C33.7314167,19.3276667 34.28725,18.5015833 34.8066667,17.1158333 C34.9715,16.63475 34.9216667,16.4315833 34.7894167,15.9409167 C32.7788333,8.372 27.3316667,3.83333333 19.4618333,3.83333333 Z M19.5825833,30.6666667 L18.7258333,30.6666667 C18.5015833,30.6666667 18.2830833,30.5919167 18.1355,30.45775 L16.997,29.7083333 L21.3095,29.7083333 L20.171,30.45775 C20.0253333,30.59 19.80875,30.6666667 19.5825833,30.6666667 Z M21.34975,28.75 L16.9816667,28.75 C16.7171667,28.75 16.5025,28.53725 16.5025,28.2708333 C16.5025,28.0063333 16.7171667,27.7916667 16.9816667,27.7916667 L21.34975,27.7916667 C21.61425,27.7916667 21.8289167,28.0063333 21.8289167,28.2708333 C21.8289167,28.5353333 21.6161667,28.75 21.34975,28.75 Z M18.8159167,26.8601667 L16.10575,26.8601667 C16.0808333,21.9343333 13.4166667,21.344 13.4166667,17.9534167 C13.4166667,14.7046667 15.9600833,12.4870833 19.1666667,12.4870833 L19.205,12.4870833 C22.3924167,12.5043333 24.9166667,14.7161667 24.9166667,17.9534167 C24.9166667,21.344 22.2505833,21.9343333 22.2256667,26.8601667 L19.5155,26.8601667 C19.5155,21.6180833 22.0416667,19.9333333 22.0416667,17.94575 C22.0416667,16.3050833 20.7115,15.3908333 19.1666667,15.3620833 L19.13025,15.3620833 C17.60075,15.40425 16.2916667,16.3185 16.2916667,17.94575 C16.2916667,19.9333333 18.8159167,21.6180833 18.8159167,26.8601667 Z M26.5841667,19.9065 L29.16975,21.0795 L28.37625,22.8255833 L25.8884167,21.6966667 C26.1778333,21.1216667 26.4174167,20.53325 26.5841667,19.9065 Z M11.7510833,19.9065 C11.9159167,20.5428333 12.14975,21.114 12.4391667,21.6985833 L9.95516667,22.8255833 L9.16358333,21.0795 L11.7510833,19.9065 Z M29.7083333,18.2083333 L26.8314167,18.2083333 C26.8505833,17.56625 26.7911667,16.9203333 26.6531667,16.2916667 L29.7083333,16.2916667 L29.7083333,18.2083333 Z M11.5019167,18.2083333 L8.625,18.2083333 L8.625,16.2916667 L11.67825,16.2916667 C11.5421667,16.9184167 11.4846667,17.5624167 11.5019167,18.2045 L11.5019167,18.2083333 Z M24.9569167,13.0065 L27.3393333,11.3179167 L28.4490833,12.88 L26.0494167,14.5839167 C25.7676667,14.0261667 25.4054167,13.4990833 24.9569167,13.0065 Z M13.3745,13.0065 C12.9336667,13.4875833 12.5733333,14.01275 12.2839167,14.582 L9.88616667,12.88 L10.994,11.3179167 L13.3745,13.0065 Z M21.8749167,11.0016667 L23.1456667,8.42375 L24.863,9.27091667 L23.59225,11.8488333 C23.0594167,11.4980833 22.4786667,11.2125 21.8749167,11.0016667 Z M16.4584167,10.99975 C15.85275,11.2105833 15.2739167,11.49425 14.7391667,11.8469167 L13.4684167,9.27091667 L15.1876667,8.42375 L16.4584167,10.99975 Z M20.125,10.6010833 C19.4848333,10.5263333 18.8715,10.5225 18.2083333,10.59725 L18.2083333,7.66666667 L20.125,7.66666667 L20.125,10.6010833 Z" id="Shape"></path>
                    </g>
                </g>
            </g>
        </g>
    </g>
</svg>