<?xml version="1.0" encoding="UTF-8"?>
<svg width="30px" height="30px" viewBox="0 0 30 30" version="1.1" xmlns="http://www.w3.org/2000/svg" xmlns:xlink="http://www.w3.org/1999/xlink">
    <!-- Generator: Sketch 51.1 (57501) - http://www.bohemiancoding.com/sketch -->
    <title>Shape Copy 10</title>
    <desc>Created with Sketch.</desc>
    <defs></defs>
    <g id="Welcome" stroke="none" stroke-width="1" fill="none" fill-rule="evenodd">
        <g id="Desktop" transform="translate(-817.000000, -3064.000000)" fill="#168156" fill-rule="nonzero">
            <path d="M817,3064 L817,3094 L847,3094 L847,3064 L817,3064 Z M827,3087.75 L823.25,3087.75 L823.25,3074 L827,3074 L827,3087.75 Z M825.125,3072.415 C823.9175,3072.415 822.9375,3071.4275 822.9375,3070.21 C822.9375,3068.9925 823.9175,3068.005 825.125,3068.005 C826.3325,3068.005 827.3125,3068.9925 827.3125,3070.21 C827.3125,3071.4275 826.33375,3072.415 825.125,3072.415 Z M842,3087.75 L838.25,3087.75 L838.25,3080.745 C838.25,3076.535 833.25,3076.85375 833.25,3080.745 L833.25,3087.75 L829.5,3087.75 L829.5,3074 L833.25,3074 L833.25,3076.20625 C834.99625,3072.97375 842,3072.735 842,3079.30125 L842,3087.75 Z" id="Shape-Copy-10"></path>
        </g>
    </g>
</svg>