<?xml version="1.0" encoding="UTF-8"?>
<svg width="24px" height="23px" viewBox="0 0 24 23" version="1.1" xmlns="http://www.w3.org/2000/svg" xmlns:xlink="http://www.w3.org/1999/xlink">
    <!-- Generator: Sketch 51.1 (57501) - http://www.bohemiancoding.com/sketch -->
    <title>Shape</title>
    <desc>Created with Sketch.</desc>
    <defs></defs>
    <g id="Welcome" stroke="none" stroke-width="1" fill="none" fill-rule="evenodd">
        <g id="Desktop" transform="translate(-958.000000, -5265.000000)" fill="#666666" fill-rule="nonzero">
            <g id="Footer" transform="translate(0.000000, 5170.000000)">
                <g id="Group-26" transform="translate(40.000000, 72.000000)">
                    <g id="linkedin2" transform="translate(918.000000, 23.000000)">
                        <path d="M4.98,2.5 C4.98,3.881 3.87,5 2.5,5 C1.13,5 0.02,3.881 0.02,2.5 C0.02,1.12 1.13,0 2.5,0 C3.87,0 4.98,1.12 4.98,2.5 Z M5,7 L0,7 L0,23 L5,23 L5,7 Z M12.982,7 L8.014,7 L8.014,23 L12.983,23 L12.983,14.601 C12.983,9.931 19.012,9.549 19.012,14.601 L19.012,23 L24,23 L24,12.869 C24,4.989 15.078,5.276 12.982,9.155 L12.982,7 Z" id="Shape"></path>
                    </g>
                </g>
            </g>
        </g>
    </g>
</svg>