<?xml version="1.0" encoding="UTF-8"?>
<svg width="13px" height="21px" viewBox="0 0 13 21" version="1.1" xmlns="http://www.w3.org/2000/svg" xmlns:xlink="http://www.w3.org/1999/xlink">
    <!-- Generator: Sketch 51.1 (57501) - http://www.bohemiancoding.com/sketch -->
    <title>Shape</title>
    <desc>Created with Sketch.</desc>
    <defs></defs>
    <g id="Welcome" stroke="none" stroke-width="1" fill="none" fill-rule="evenodd">
        <g id="Desktop" transform="translate(-664.000000, -4761.000000)" fill="#168156" fill-rule="nonzero">
            <g id="Contact-Us-Section" transform="translate(0.000000, 4284.000000)">
                <g id="Group-31" transform="translate(664.000000, 473.000000)">
                    <path d="M6.5,4 C3.089125,4 0,6.977625 0,10.65175 C0,14.325 2.8185625,18.7105 6.5,25 C10.1814375,18.7105 13,14.325 13,10.65175 C13,6.977625 9.9116875,4 6.5,4 Z M6.5,13.625 C5.1536875,13.625 4.0625,12.449875 4.0625,11 C4.0625,9.550125 5.1536875,8.375 6.5,8.375 C7.8463125,8.375 8.9375,9.550125 8.9375,11 C8.9375,12.449875 7.8463125,13.625 6.5,13.625 Z" id="Shape"></path>
                </g>
            </g>
        </g>
    </g>
</svg>