<?xml version="1.0" encoding="UTF-8"?>
<svg width="82px" height="82px" viewBox="0 0 82 82" version="1.1" xmlns="http://www.w3.org/2000/svg" xmlns:xlink="http://www.w3.org/1999/xlink">
    <!-- Generator: Sketch 51.1 (57501) - http://www.bohemiancoding.com/sketch -->
    <title>Group 37</title>
    <desc>Created with Sketch.</desc>
    <defs></defs>
    <g id="Welcome" stroke="none" stroke-width="1" fill="none" fill-rule="evenodd">
        <g id="Desktop" transform="translate(-1064.000000, -2221.000000)">
            <g id="Our-Services-Section" transform="translate(0.000000, 1468.000000)">
                <g id="Group-41" transform="translate(1064.000000, 753.000000)">
                    <g id="Group-37">
                        <circle id="Oval-Copy-3" fill="#DAFFF0" cx="41" cy="41" r="41"></circle>
                        <g id="Map" transform="translate(19.000000, 18.000000)" fill="#168156" fill-rule="nonzero">
                            <path d="M42.9126512,4.50372093 L32.2149767,0.224651163 C31.8351539,0.0763423323 31.4310068,0.000156623115 31.0232558,2.49293397e-13 C30.4588905,0.000940712824 29.904982,0.152342372 29.4186047,0.438604651 C28.9322273,0.152342372 28.3783188,0.000940712824 27.8139535,6.05644143e-15 C27.4062025,0.000156623115 27.0020554,0.0763423323 26.6222326,0.224651163 L15.9245581,4.50372093 C15.7801395,4.56790698 15.6432093,4.63209302 15.5116279,4.70697674 C15.3800465,4.63209302 15.2431163,4.56790698 15.0986977,4.50372093 L4.40102326,0.224651163 C4.02120039,0.0763423323 3.61705334,0.000156623115 3.20930233,2.49293397e-13 C2.56674721,-0.00293155678 1.93874213,0.191219834 1.40995349,0.55627907 C0.526149945,1.14943451 -0.00289644093,2.14490875 -4.85397313e-16,3.20930233 L-4.85397313e-16,38.5116279 C0.00010238967,39.82512 0.798774991,41.0066134 2.0175814,41.4962791 L12.7152558,45.7753488 C13.0950787,45.9236577 13.4992257,45.9998434 13.9069767,46 C14.471342,45.9990593 15.0252505,45.8476576 15.5116279,45.5613953 C15.9980053,45.8476576 16.5519138,45.9990593 17.1162791,46 C17.5240301,45.9998434 17.9281771,45.9236577 18.308,45.7753488 L29.0056744,41.4962791 C29.150093,41.432093 29.2870233,41.367907 29.4186047,41.2930233 C29.550186,41.367907 29.6871163,41.432093 29.8315349,41.4962791 L40.5292093,45.7753488 C40.9090322,45.9236577 41.3131792,45.9998434 41.7209302,46 C42.3634854,46.0029316 42.9914904,45.8087802 43.5202791,45.4437209 C44.4040826,44.8505655 44.933129,43.8550913 44.9302326,42.7906977 L44.9302326,7.48837209 C44.9301302,6.17487999 44.1314576,4.99338659 42.9126512,4.50372093 Z M3.20930233,38.5116279 L3.20930233,3.20930233 L13.9069767,7.48837209 L13.9069767,42.7906977 L3.20930233,38.5116279 Z M17.1162791,42.7906977 L17.1162791,7.48837209 L27.8139535,3.20930233 L27.8139535,38.5116279 L17.1162791,42.7906977 Z M41.7209302,42.7906977 L31.0232558,38.5116279 L31.0232558,3.20930233 L41.7209302,7.48837209 L41.7209302,42.7906977 Z"></path>
                        </g>
                    </g>
                </g>
            </g>
        </g>
    </g>
</svg>