<?xml version="1.0" encoding="UTF-8"?>
<svg width="24px" height="18px" viewBox="0 0 24 18" version="1.1" xmlns="http://www.w3.org/2000/svg" xmlns:xlink="http://www.w3.org/1999/xlink">
    <!-- Generator: Sketch 51.1 (57501) - http://www.bohemiancoding.com/sketch -->
    <title>Shape</title>
    <desc>Created with Sketch.</desc>
    <defs></defs>
    <g id="Welcome" stroke="none" stroke-width="1" fill="none" fill-rule="evenodd">
        <g id="Desktop" transform="translate(-1033.000000, -5267.000000)" fill="#666666" fill-rule="nonzero">
            <g id="Footer" transform="translate(0.000000, 5170.000000)">
                <g id="Group-26" transform="translate(40.000000, 72.000000)">
                    <g id="twitter" transform="translate(993.000000, 25.000000)">
                        <path d="M24,2.1309475 C23.117,2.49271944 22.168,2.73636177 21.172,2.8461854 C22.189,2.28414684 22.97,1.3935603 23.337,0.332239541 C22.386,0.852748154 21.332,1.23113208 20.21,1.43509024 C19.313,0.551886792 18.032,0 16.616,0 C13.437,0 11.101,2.73728466 11.819,5.57885562 C7.728,5.38966366 4.1,3.58080394 1.671,0.831521739 C0.381,2.87387203 1.002,5.54563167 3.194,6.89858491 C2.388,6.87458983 1.628,6.67063167 0.965,6.33008614 C0.911,8.43519278 2.546,10.4046349 4.914,10.8430066 C4.221,11.0165094 3.462,11.0571165 2.69,10.9205291 C3.316,12.7256973 5.134,14.0389664 7.29,14.0758819 C5.22,15.5737285 2.612,16.242822 0,15.9585726 C2.179,17.2478466 4.768,18 7.548,18 C16.69,18 21.855,10.8743847 21.543,4.48338802 C22.505,3.84198113 23.34,3.04183757 24,2.1309475 Z" id="Shape"></path>
                    </g>
                </g>
            </g>
        </g>
    </g>
</svg>